<svg xmlns="http://www.w3.org/2000/svg" viewBox="0 0 130 200" fill="none"><path d="m5 72 35-50 19 24 15-10 47 64-18 12-96-18Z" fill="#e9eee0"/><path d="m10 68 30-46 19 24 15-10 44 62M31 37l10 4 5-7M59 46l-4 12" stroke="#93b0a0" stroke-width="2"/><path d="m0 81 20-29 12 35 17-28 35 54-79 18" fill="#bdd8c9"/><path d="m8 111 13-22 8 14 9-14 26 34" fill="#8bbca8"/><path d="M5 111c70 15 83 16 72 23-20 8-56-7-60 6-5 11 60 7 72 22 12 11-46 14-57 12-29-5-51 11-31 17 8 3 23 1 33 7H0" fill="#bbd8c9"/><path d="M12 123c32 1 52 11 37 12M34 156c18-2 41 4 36 8" stroke="#fffefa" stroke-width="3"/></svg>
