<svg xmlns="http://www.w3.org/2000/svg" viewBox="0 0 1000 160" preserveAspectRatio="none">
  <defs><filter id="grain" x="0" y="0" width="100%" height="100%"><feTurbulence type="fractalNoise" baseFrequency=".6" numOctaves="2" seed="8"/><feColorMatrix type="saturate" values="0"/><feComponentTransfer><feFuncA type="linear" slope=".045"/></feComponentTransfer><feBlend in="SourceGraphic" mode="multiply"/></filter></defs>
  <path fill="#fffcf5" d="M21 13 63 9 42 7 137 11 211 7 202 10 314 6 343 9 406 8 422 5 437 8 573 5 612 8 706 6 731 10 819 7 834 10 937 12 977 17 954 19 988 24 971 28 993 32 978 34 981 39 990 41 978 45 985 48 974 54 992 58 978 61 989 66 976 70 989 73 975 80 985 83 972 87 981 90 967 94 985 99 970 103 983 108 968 111 975 117 959 120 975 125 941 130 968 133 920 139 964 141 939 146 852 143 832 146 759 144 702 149 642 146 610 152 547 148 502 152 480 148 368 150 328 147 262 151 216 148 129 150 100 146 64 149 27 145 47 140 18 137 40 133 16 128 36 124 10 120 26 117 14 112 26 107 10 105 21 100 11 96 23 91 7 87 27 83 13 79 28 75 11 71 29 66 16 63 32 58 14 55 33 50 20 46 37 42 17 36 40 32 24 29 43 25 22 21 54 18Z"/>
  <path fill="#fffefa" opacity=".55" d="M48 18 243 12 421 14 609 12 949 21 974 52 963 121 847 140 620 139 433 144 249 140 45 141 32 112 37 46Z" filter="url(#grain)"/>
  <g fill="none" stroke="#fffdf7" stroke-linecap="round"><path d="m31 7 129 3m107-6 119 3m229-4 152 5m116-1 85 5M8 28l22 2m-23 30 17-1m-12 60 24-2m-9 32 68 2m78 3 137-1m129 1 109-2m212-1 64-3m130-1 44-3" stroke-width="2" opacity=".6"/><path d="m965 40 24 3m-18 13 22 1m-20 21 14 1m-22 14 17 2m-13 18 15-2" stroke-width="2" opacity=".8"/></g>
</svg>
