<svg xmlns="http://www.w3.org/2000/svg" viewBox="0 0 128 128" role="img" aria-labelledby="title">
  <title id="title">旅帳 TripTab</title>
  <defs>
    <linearGradient id="brand-background" x1="18" y1="10" x2="111" y2="119" gradientUnits="userSpaceOnUse">
      <stop stop-color="#73c89b"/>
      <stop offset=".52" stop-color="#4eae7d"/>
      <stop offset="1" stop-color="#0c5642"/>
    </linearGradient>
    <linearGradient id="receipt-paper" x1="20" y1="82" x2="108" y2="120" gradientUnits="userSpaceOnUse">
      <stop stop-color="#fffdf4"/>
      <stop offset="1" stop-color="#f0eee2"/>
    </linearGradient>
    <linearGradient id="compass-needle" x1="45" y1="71" x2="76" y2="39" gradientUnits="userSpaceOnUse">
      <stop stop-color="#0b5c45"/>
      <stop offset="1" stop-color="#143e34"/>
    </linearGradient>
  </defs>

  <rect x="8" y="8" width="112" height="112" rx="27" fill="url(#brand-background)"/>

  <circle cx="58" cy="56" r="29" fill="#d7f0e1" opacity=".38"/>
  <circle cx="58" cy="56" r="23" fill="#fffdf9"/>
  <path d="m44 72 8-22 23-10-8 23-23 9Z" fill="url(#compass-needle)"/>
  <path d="m52 50 8 7 15-17-23 10Z" fill="#1a684f"/>
  <circle cx="60" cy="57" r="4.5" fill="#fffdf9"/>

  <path d="M8 78c7 8 16 12 28 12h59c14 0 25 11 25 25v5H34C19 120 8 109 8 94V78Z" fill="url(#receipt-paper)"/>
  <rect x="87" y="101" width="22" height="4.5" rx="2.25" fill="#7bb99b"/>
  <rect x="87" y="111" width="22" height="4.5" rx="2.25" fill="#7bb99b"/>

  <path d="M58 14c-7.7 0-14 6.2-14 13.9C44 37.7 58 50 58 50s14-12.3 14-22.1C72 20.2 65.7 14 58 14Zm0 19a5.5 5.5 0 1 1 0-11 5.5 5.5 0 0 1 0 11Z" fill="#fff"/>
  <rect x="8.75" y="8.75" width="110.5" height="110.5" rx="26.25" fill="none" stroke="#fff" stroke-opacity=".22" stroke-width="1.5"/>
</svg>
